<svg width="15" height="14" viewBox="0 0 15 14" fill="none" xmlns="http://www.w3.org/2000/svg">
<path d="M1.04423 0.418886C0.471499 0.418886 0 0.906915 0 1.49973V12.7524C0 13.3453 0.471499 13.8333 1.04423 13.8333H10.5489C11.1216 13.8333 11.5931 13.3453 11.5931 12.7524V8.73721L14.9016 5.31822C15.0328 5.18104 15.0328 4.95908 14.9016 4.82191L13.3566 3.2227C13.2846 3.14619 13.1828 3.10759 13.0795 3.11793C13.0023 3.12827 12.931 3.1648 12.8771 3.2227L11.5931 4.55721V1.49982C11.5931 0.907004 11.1216 0.418974 10.5489 0.418974C10.5382 0.418285 10.5276 0.418285 10.5169 0.418974C10.4263 0.42311 10.3411 0.464468 10.2805 0.534089C10.2192 0.603019 10.1879 0.6947 10.1919 0.788444C10.1959 0.882189 10.2359 0.970414 10.3031 1.03315C10.3697 1.09657 10.4583 1.12896 10.5489 1.12483C10.756 1.12483 10.9111 1.28544 10.9111 1.49981V5.26307L7.94365 8.34025C7.87972 8.40573 7.84309 8.49535 7.84242 8.58839V10.1766C7.84242 10.3717 7.99493 10.5295 8.1834 10.5295H9.71778C9.80769 10.5288 9.89427 10.4909 9.95752 10.4247L10.9112 9.43762V12.7525C10.9112 12.9668 10.756 13.1274 10.5489 13.1274H1.04424C0.837137 13.1274 0.681959 12.9668 0.681959 12.7525V1.49975C0.681959 1.28538 0.83713 1.12476 1.04424 1.12476H9.20632C9.29756 1.12614 9.38547 1.08961 9.45073 1.02343C9.51533 0.956571 9.55196 0.866272 9.55196 0.771832C9.55196 0.677392 9.51533 0.587092 9.45073 0.520229C9.38547 0.454055 9.29756 0.417522 9.20632 0.4189L1.04423 0.418886ZM2.35485 3.47081C2.26428 3.47495 2.17905 3.51631 2.11844 3.58593C2.05717 3.65486 2.02587 3.74654 2.02987 3.84028C2.03386 3.93403 2.07382 4.02225 2.14108 4.08498C2.20768 4.1484 2.29625 4.1808 2.38682 4.17666H9.20631C9.29755 4.17804 9.38546 4.14151 9.45072 4.07533C9.51532 4.00847 9.55195 3.91817 9.55195 3.82373C9.55195 3.72929 9.51532 3.63899 9.45072 3.57213C9.38546 3.50595 9.29755 3.46942 9.20631 3.4708H2.38682C2.37617 3.47011 2.36551 3.47012 2.35485 3.47081ZM13.1169 3.96712L14.1824 5.07002L13.5591 5.71521L12.4935 4.61231L13.1169 3.96712ZM12.014 5.10863L13.0796 6.21153L9.57928 9.82358H8.52439V8.73171L12.014 5.10863ZM2.35489 5.5884C2.26432 5.59254 2.17908 5.63389 2.11847 5.70351C2.0572 5.77245 2.0259 5.86413 2.0299 5.95787C2.0339 6.05162 2.07385 6.13984 2.14112 6.20257C2.20771 6.26599 2.29629 6.29839 2.38686 6.29425H9.20634C9.29758 6.29563 9.38549 6.2591 9.45076 6.19292C9.51535 6.12606 9.55198 6.03576 9.55198 5.94132C9.55198 5.84688 9.51535 5.75658 9.45076 5.68972C9.38549 5.62354 9.29758 5.58701 9.20634 5.58839H2.38686C2.3762 5.5877 2.36554 5.58771 2.35489 5.5884ZM2.35489 7.70597C2.26432 7.71011 2.17908 7.75147 2.11847 7.82109C2.0572 7.89002 2.0259 7.9817 2.0299 8.07544C2.0339 8.16919 2.07385 8.25741 2.14112 8.32015C2.20771 8.38356 2.29629 8.41596 2.38686 8.41182H6.84612C6.93736 8.4132 7.02527 8.37667 7.09053 8.31049C7.15513 8.24363 7.19176 8.15333 7.19176 8.05889C7.19176 7.96445 7.15513 7.87415 7.09053 7.80729C7.02527 7.74111 6.93736 7.70458 6.84612 7.70596H2.38686C2.3762 7.70527 2.36554 7.70528 2.35489 7.70597ZM2.35489 9.82354C2.26432 9.82768 2.17908 9.86904 2.11847 9.93866C2.0572 10.0076 2.0259 10.0993 2.0299 10.193C2.0339 10.2868 2.07385 10.375 2.14112 10.4377C2.20771 10.5011 2.29629 10.5335 2.38686 10.5294H6.81952C6.91076 10.5308 6.99867 10.4942 7.06393 10.4281C7.12853 10.3612 7.16516 10.2709 7.16516 10.1765C7.16516 10.082 7.12853 9.99172 7.06393 9.92486C6.99867 9.85869 6.91076 9.82215 6.81952 9.82353H2.38686C2.3762 9.82284 2.36554 9.82285 2.35489 9.82354Z" fill="#EC008C"/>
</svg>
