<svg width="13" height="15" viewBox="0 0 13 15" fill="none" xmlns="http://www.w3.org/2000/svg">
<path d="M12.6471 2.31975H9.6435C9.44945 1.44146 8.8123 0.693448 7.91813 0.297231C7.02401 -0.0990771 5.97624 -0.0990771 5.08201 0.297231C4.18789 0.69354 3.55075 1.44151 3.35664 2.31975H0.353009C0.158295 2.31975 0 2.46197 0 2.63691V14.5C0 14.5845 0.0370897 14.6648 0.103322 14.7243C0.169553 14.7838 0.259628 14.8178 0.353023 14.8178H12.647C12.7404 14.8178 12.8304 14.7838 12.8967 14.7243C12.9629 14.6648 13 14.5845 13 14.5V2.63691C13 2.46197 12.8418 2.31975 12.6471 2.31975ZM6.50016 0.634648C7.05385 0.635838 7.59165 0.801863 8.02878 1.10653C8.4659 1.41179 8.77853 1.83844 8.91695 2.31983H4.08333C4.22175 1.83843 4.53437 1.41179 4.9715 1.10653C5.40862 0.801863 5.94646 0.635851 6.50016 0.634648ZM12.2934 14.1828H0.706867V2.95467H3.29526V4.26438C3.29526 4.43992 3.45356 4.58154 3.64827 4.58154C3.84365 4.58154 4.00194 4.43992 4.00194 4.26438V2.95467H8.9985V4.26438C8.9985 4.43992 9.1568 4.58154 9.35217 4.58154C9.54689 4.58154 9.70518 4.43992 9.70518 4.26438V2.95467H12.2936L12.2934 14.1828Z" fill="#EC008C"/>
</svg>
