<svg width="35" height="34" viewBox="0 0 35 34" fill="none" xmlns="http://www.w3.org/2000/svg">
<path d="M20.677 18.0886H18.1879C18.1781 18.2817 18.1629 18.4421 18.1629 18.6026C18.1629 20.879 18.1629 23.1553 18.1629 25.4317C18.1629 25.5796 18.1494 25.7281 18.1412 25.896H15.1772C15.1658 25.7247 15.1446 25.5499 15.1446 25.3769C15.1414 23.1557 15.1397 20.9347 15.1397 18.714V18.1001H12.624V15.0425H15.1142C15.1229 14.8529 15.1354 14.7061 15.1359 14.5593C15.1359 13.9208 15.1197 13.2818 15.1408 12.6439C15.1497 12.2698 15.1957 11.8977 15.2781 11.5337C15.6402 10.0203 16.5699 9.11913 18.0262 8.84958C19.0477 8.66055 20.0713 8.78448 21.1199 8.87871V11.5999C20.7563 11.5999 20.4171 11.5931 20.0784 11.5999C19.7625 11.6085 19.4433 11.6062 19.1323 11.657C18.5326 11.7536 18.2194 12.0745 18.1885 12.6993C18.1516 13.4571 18.1798 14.2189 18.1798 15.0242H21.0564C20.9278 16.0704 20.8046 17.0652 20.677 18.0886Z" fill="#EDEDED"/>
<circle cx="17.25" cy="17" r="16.5" stroke="#EDEDED"/>
</svg>
