<svg width="142" height="344" viewBox="0 0 142 344" fill="none" xmlns="http://www.w3.org/2000/svg">
<g clip-path="url(#clip0)">
<path d="M41.1376 174.266C44.8642 176.001 48.3709 177.94 51.6219 180.062C53.2149 181.084 54.7591 182.142 56.2925 183.208C57.7067 184.19 59.1263 185.168 60.5188 186.165C63.1015 188.01 65.6896 189.852 68.2831 191.692C70.1506 193.023 72.0091 194.357 73.8585 195.693C75.9608 197.213 78.0739 198.725 80.1383 200.271L86.7757 205.25C90.2055 207.821 93.6569 210.366 96.8808 213.054C99.8138 215.49 102.512 218.049 104.959 220.716C106.433 222.331 107.771 223.989 109.066 225.673C109.57 226.338 110.08 226.997 110.589 227.659C110.827 227.971 111.131 228.28 111.315 228.604C112.09 229.793 112.87 230.986 113.65 232.172C114.338 233.226 114.924 234.306 115.525 235.383C116.034 236.303 116.527 237.201 116.983 238.143C117.47 239.143 117.996 240.139 118.418 241.154C118.841 242.169 119.334 243.271 119.724 244.34C119.973 245.023 120.217 245.704 120.467 246.387C120.808 247.325 121.057 248.275 121.274 249.231C121.627 250.776 121.858 252.332 121.967 253.893C122.016 254.639 122.005 255.381 121.967 256.126C121.929 256.872 121.913 257.661 121.772 258.417C121.545 259.675 121.312 260.934 121.084 262.196C120.622 264.718 119.84 267.21 118.749 269.643C116.977 273.593 114.176 277.28 111.478 280.961C110.237 282.659 109.012 284.361 107.858 286.081C106.412 288.23 104.965 290.376 103.486 292.511C103.182 292.951 102.879 293.391 102.57 293.831C102.261 294.271 101.92 294.613 101.6 294.998L99.9746 296.933C99.7525 297.202 99.5357 297.467 99.2811 297.726C97.3377 299.738 95.3727 301.742 93.386 303.737C91.7605 305.366 90.135 306.988 88.5095 308.628C87.6047 309.552 86.6565 310.465 85.8004 311.407C84.7818 312.531 83.7595 313.654 82.7337 314.774C81.9968 315.578 81.3358 316.414 80.6476 317.243C79.9595 318.073 79.2497 318.887 78.6158 319.731C77.0047 321.874 75.4045 324.018 73.8152 326.164C73.2192 326.971 72.6178 327.764 71.9784 328.553C71.1602 329.553 70.3854 330.572 69.5293 331.557C67.8009 333.521 66.0725 335.485 64.3115 337.434C63.6017 338.216 62.9028 338.99 62.2418 339.787L59.6085 342.983C58.7361 344.045 57.8475 345.1 56.9644 346.158C56.2762 346.984 55.5394 347.791 54.7971 348.602C53.2149 350.362 51.6707 352.144 50.029 353.882C48.2843 355.726 46.5017 357.559 44.8545 359.443C44.0039 360.417 43.1694 361.407 42.2917 362.37C41.8582 362.85 41.4193 363.327 40.9859 363.803C40.5524 364.28 40.2327 364.687 39.8047 365.101C38.5748 366.287 37.3665 367.473 36.0119 368.6C34.3856 369.934 32.5929 371.172 30.6533 372.302C29.7376 372.84 28.8327 373.393 27.852 373.873C27.0914 374.224 26.2664 374.508 25.3975 374.717C24.2932 375.001 23.1573 375.228 22.0003 375.393C17.6927 376.03 13.4123 374.939 9.53825 373.782C5.39858 372.564 1.56128 370.928 -1.84013 368.931C-3.77445 367.789 -5.52998 366.538 -7.30176 365.294C-8.28787 364.592 -9.27942 363.898 -10.2276 363.174L-12.422 361.505C-12.7796 361.232 -13.1589 360.967 -13.5057 360.679C-15.673 358.825 -17.8403 356.965 -20.0076 355.101C-20.9612 354.279 -21.8986 353.453 -22.8414 352.624L-24.4668 351.199C-24.7919 350.915 -25.0683 350.602 -25.3608 350.304C-25.9785 349.675 -26.5962 349.049 -27.2085 348.42C-27.5065 348.118 -27.8262 347.827 -28.0862 347.515C-29.011 346.407 -29.9357 345.298 -30.8604 344.187C-32.3829 342.369 -33.8242 340.514 -35.3142 338.678C-37.3244 336.201 -39.3021 333.703 -41.0793 331.143C-42.9775 328.385 -44.4306 325.5 -45.4139 322.535C-46.3682 319.552 -46.8926 316.515 -46.9797 313.465C-47.0394 312.047 -46.9527 310.625 -46.9093 309.206C-46.8822 308.348 -46.8551 307.504 -46.7576 306.661C-46.5914 305.252 -46.4253 303.844 -46.2591 302.435C-46.1562 301.555 -45.934 300.682 -45.7606 299.809C-45.6198 299.082 -45.4735 298.355 -45.3326 297.627C-45.2567 297.246 -45.2026 296.853 -45.0996 296.471C-44.7781 295.259 -44.4603 294.055 -44.146 292.86C-43.9293 292.052 -43.7288 291.252 -43.4525 290.452C-42.9865 289.107 -42.5223 287.759 -42.06 286.408C-41.724 285.43 -41.2635 284.47 -40.8571 283.499C-40.4832 282.612 -40.0985 281.732 -39.6868 280.852C-38.6645 278.684 -37.6405 276.515 -36.6146 274.346C-35.6339 272.255 -34.6803 270.164 -33.77 268.054C-32.8597 265.945 -31.9332 263.745 -31.0229 261.588C-30.2427 259.737 -29.5004 257.872 -28.5956 256.046L-26.7642 252.359C-26.6125 252.06 -26.4228 251.769 -26.2495 251.475C-25.8051 250.722 -25.3663 249.966 -24.922 249.209C-24.3801 248.311 -23.8383 247.424 -23.264 246.54C-22.6517 245.594 -22.0774 244.631 -21.3893 243.707L-18.9998 240.499C-18.1816 239.409 -17.2822 238.318 -16.4207 237.252C-15.7001 236.346 -14.9198 235.466 -14.1667 234.575C-13.4677 233.754 -12.7579 232.939 -12.0373 232.124C-11.2625 231.248 -10.4552 230.382 -9.73456 229.488C-8.8893 228.44 -8.0278 227.404 -7.19881 226.349L-5.09651 223.68C-4.55469 222.982 -3.95325 222.302 -3.36266 221.614C-2.00809 220.029 -0.604759 218.465 0.798569 216.887C1.48127 216.12 2.13687 215.341 2.80332 214.57C3.40475 213.879 3.94659 213.181 4.49384 212.472C5.04108 211.763 5.65334 211.017 6.15182 210.243C6.7081 209.37 7.2716 208.498 7.84232 207.628L9.5274 204.839C10.1505 203.813 10.779 202.777 11.4563 201.766C12.0957 200.82 12.7025 199.86 13.3798 198.929C14.1221 197.904 14.8644 196.882 15.6446 195.874C17.1238 193.969 18.7493 192.121 20.3748 190.27C21.1929 189.347 21.9569 188.408 22.7046 187.459C23.4524 186.51 24.0104 185.641 24.666 184.724C25.3481 183.739 26.1415 182.789 27.0393 181.884C27.9384 181.006 29.0762 180.25 30.3932 179.655C31.6379 179.138 32.9219 178.664 34.2401 178.237C34.9171 177.996 35.6156 177.783 36.3316 177.6C36.6553 177.526 36.9867 177.468 37.3231 177.426C37.5744 177.39 37.8303 177.371 38.0871 177.368C37.5908 177.119 37.2307 176.768 37.0631 176.367C36.9669 176.128 36.9423 175.878 36.9906 175.632C37.039 175.386 37.1593 175.149 37.3448 174.935C37.6047 174.652 37.9671 174.418 38.3982 174.254C38.8293 174.091 39.315 174.003 39.8101 174C40.2821 173.998 40.7443 174.09 41.1376 174.266ZM82.4248 207.999C80.2575 206.304 78.0523 204.631 75.8633 202.948C73.8152 201.373 71.6966 199.838 69.5998 198.289C67.7937 196.944 65.9587 195.602 64.0948 194.263L56.6609 188.91C54.3636 187.257 52.0265 185.624 49.6497 184.012C46.7893 182.072 43.7567 180.251 40.5687 178.557C40.5694 178.651 40.5531 178.745 40.5199 178.837C40.4132 179.099 40.1565 179.323 39.8054 179.459C39.4544 179.595 39.0374 179.633 38.6452 179.564L38.461 179.531C38.0098 179.588 37.5659 179.668 37.1335 179.771C36.3208 180.033 35.5459 180.35 34.7603 180.648C33.8825 180.986 32.9994 181.299 32.1704 181.692C31.6063 182.003 31.0874 182.35 30.6207 182.728C29.044 184.219 28.0362 185.917 26.9092 187.572C26.3295 188.423 25.7443 189.274 25.0995 190.118C24.4547 190.961 23.7666 191.783 23.0839 192.609C22.3633 193.492 21.6372 194.38 20.9166 195.271C20.196 196.162 19.497 197.14 18.8143 198.085C17.6386 199.696 16.6037 201.358 15.5634 202.999C15.0215 203.908 14.4797 204.817 13.9379 205.722C13.2985 206.813 12.6808 207.941 11.9927 209.032C11.3046 210.123 10.6327 211.166 9.95544 212.236C9.70621 212.628 9.37026 213.003 9.08309 213.381C8.60087 214.014 8.12408 214.643 7.64185 215.269C7.40887 215.578 7.10001 215.872 6.86703 216.17L5.12776 218.163C4.32044 219.08 3.50229 219.982 2.6462 220.883C1.06949 222.611 -0.46389 224.356 -1.93224 226.128C-2.65829 227.008 -3.38434 227.884 -4.13206 228.757C-4.87978 229.63 -5.67627 230.633 -6.52151 231.535C-8.43959 233.572 -10.336 235.617 -12.2107 237.67C-13.7387 239.339 -15.1799 241.049 -16.5778 242.761C-17.3093 243.667 -18.1058 244.58 -18.7451 245.496L-21.1671 248.882C-21.6385 249.544 -22.034 250.238 -22.4621 250.915C-22.8901 251.591 -23.2965 252.224 -23.7191 252.879C-24.7702 254.802 -25.8593 256.719 -26.775 258.675C-27.8587 260.988 -28.9315 263.304 -29.9935 265.621C-30.8279 267.44 -31.619 269.287 -32.5184 271.105C-33.6346 273.396 -34.7453 275.691 -35.8506 277.99C-36.5496 279.444 -37.216 280.899 -37.8933 282.354C-38.2834 283.175 -38.5814 284.026 -38.9174 284.859C-39.1774 285.492 -39.4592 286.121 -39.6814 286.765L-40.6566 289.75C-40.8625 290.38 -41.1118 291.009 -41.2689 291.645C-41.6915 293.376 -42.116 295.11 -42.5422 296.845C-42.8131 298.387 -43.0876 299.929 -43.3658 301.471C-43.6096 302.857 -43.6854 304.253 -43.8155 305.642C-43.8751 306.243 -43.9834 306.853 -43.9889 307.461C-43.9889 308.234 -43.9979 309.011 -44.016 309.792V312.29C-44.016 313.058 -43.9401 313.832 -43.8805 314.6C-43.7884 315.691 -43.6313 316.76 -43.4308 317.836C-43.0698 319.595 -42.5505 321.338 -41.8757 323.055C-41.1305 324.907 -40.1983 326.724 -39.0853 328.491C-37.8825 330.364 -36.4737 332.168 -35.0487 333.968C-34.3335 334.877 -33.6237 335.787 -32.8814 336.685C-31.1945 338.738 -29.5185 340.799 -27.8533 342.867C-27.0513 343.864 -26.2278 344.849 -25.3825 345.842C-24.6619 346.704 -23.8275 347.518 -23.0202 348.344C-22.5289 348.846 -22.0376 349.349 -21.5464 349.853C-21.2538 350.151 -20.907 350.428 -20.5873 350.711C-19.5904 351.595 -18.6043 352.482 -17.6019 353.359C-16.493 354.329 -15.3876 355.298 -14.2859 356.268C-13.2022 357.181 -12.1619 358.086 -11.0945 359.017C-10.7857 359.283 -10.4498 359.534 -10.1192 359.788L-7.63226 361.712C-6.5486 362.549 -5.41077 363.349 -4.28919 364.16C-2.19753 365.725 0.0645142 367.183 2.47823 368.524C3.86787 369.228 5.31499 369.88 6.81285 370.476C8.51225 371.138 10.2732 371.726 12.0848 372.237C13.9025 372.774 15.8059 373.171 17.7578 373.418C18.6931 373.491 19.6368 373.502 20.5753 373.451C21.9148 373.3 23.2275 373.056 24.4927 372.724C25.2132 372.508 25.9009 372.246 26.5462 371.942C27.5919 371.353 28.6051 370.742 29.6075 370.124C31.4361 368.989 33.1316 367.761 34.679 366.451C36.522 364.766 38.2224 363.012 39.7722 361.199C41.479 359.286 43.1749 357.37 44.9791 355.497L47.7425 352.624C48.6852 351.642 49.563 350.631 50.4516 349.635C51.985 347.962 53.5292 346.296 54.9704 344.584C56.7115 342.503 58.4417 340.42 60.1611 338.332C60.8764 337.47 61.6728 336.634 62.4368 335.787C63.1466 334.997 63.8618 334.208 64.5554 333.408C65.3952 332.437 66.2892 331.477 67.0857 330.499L69.8653 327.026C70.5317 326.189 71.1115 325.324 71.7237 324.48C72.336 323.637 72.9049 322.822 73.5009 321.993L76.1179 318.334C76.8115 317.363 77.6134 316.418 78.3665 315.465C78.9788 314.68 79.5965 313.905 80.2467 313.138C81.0974 312.134 81.9155 311.112 82.7987 310.126C84.565 308.155 86.3242 306.184 88.0761 304.213C89.5661 302.537 91.067 300.864 92.5028 299.169L94.3396 296.987C94.681 296.587 95.0602 296.191 95.3528 295.773L97.8344 292.252C98.555 290.983 99.2865 289.725 100.002 288.452C100.787 287.027 101.53 285.586 102.364 284.172C103.323 282.546 104.244 280.899 105.263 279.302C106.097 277.979 106.933 276.655 107.771 275.331C108.405 274.28 109.039 273.229 109.63 272.167C110.269 271.014 110.806 269.84 111.299 268.654C112.136 266.589 112.776 264.49 113.217 262.37C113.423 261.112 113.639 259.857 113.851 258.599C114.053 257.277 114.142 255.949 114.116 254.621C114.096 253.082 113.941 251.546 113.65 250.02C113.23 248.205 112.673 246.405 111.981 244.627C111.662 243.769 111.385 242.892 111.006 242.045L109.776 239.31C109.077 237.747 108.254 236.212 107.463 234.666C107.138 234.034 106.72 233.419 106.346 232.801C105.973 232.183 105.55 231.477 105.154 230.819C104.158 229.419 103.161 228.026 102.164 226.629C101.519 225.72 100.787 224.837 100.072 223.953C99.2811 222.971 98.4466 222.011 97.5526 221.065C95.8025 219.174 93.9007 217.345 91.8851 215.578C88.8563 212.985 85.6324 210.508 82.4248 208.013V207.999ZM-14.4972 356.079L-14.3618 356.199L-14.4972 356.079Z" fill="#FCE0E8"/>
</g>
<g clip-path="url(#clip1)">
<path d="M4.90057 270.391C5.73091 270.393 6.54189 270.642 7.23109 271.106C7.92028 271.57 8.45678 272.229 8.77281 272.998C9.08885 273.768 9.17026 274.614 9.00674 275.429C8.84323 276.245 8.44215 276.994 7.85413 277.581C7.26612 278.169 6.51755 278.568 5.70298 278.73C4.88841 278.891 4.04437 278.807 3.27747 278.488C2.51057 278.169 1.85521 277.63 1.39415 276.938C0.933089 276.246 0.687016 275.432 0.687012 274.6C0.697651 273.487 1.14367 272.423 1.92921 271.636C2.71476 270.848 3.77713 270.402 4.88801 270.391L4.90057 270.391Z" fill="#9FB0D1"/>
<path d="M27.0609 320.382C27.8919 320.382 28.7042 320.629 29.3951 321.092C30.0861 321.555 30.6245 322.212 30.9424 322.982C31.2603 323.751 31.3433 324.598 31.1809 325.414C31.0186 326.231 30.6181 326.981 30.0303 327.569C29.4425 328.158 28.6936 328.559 27.8785 328.721C27.0634 328.883 26.2186 328.799 25.451 328.48C24.6835 328.161 24.0276 327.621 23.5663 326.928C23.1051 326.235 22.8592 325.421 22.8599 324.589C22.8697 323.476 23.3156 322.411 24.1014 321.624C24.8872 320.837 25.95 320.391 27.0609 320.382Z" fill="#9FB0D1"/>
<path d="M28.8475 227C29.6785 227 30.4908 227.247 31.1817 227.71C31.8727 228.172 32.4111 228.83 32.729 229.599C33.0469 230.369 33.1299 231.215 32.9675 232.032C32.8052 232.848 32.4047 233.599 31.8169 234.187C31.2291 234.776 30.4802 235.176 29.6651 235.338C28.85 235.5 28.0052 235.417 27.2376 235.098C26.4701 234.779 25.8142 234.238 25.3529 233.546C24.8917 232.853 24.6459 232.039 24.6465 231.206C24.6571 230.093 25.1033 229.029 25.8889 228.243C26.6745 227.456 27.7369 227.01 28.8475 227Z" fill="#9FB0D1"/>
<path d="M51.796 271.391C52.6272 271.391 53.4398 271.637 54.1311 272.1C54.8225 272.562 55.3614 273.219 55.6798 273.989C55.9981 274.758 56.0816 275.604 55.9196 276.421C55.7576 277.238 55.3574 277.989 54.7697 278.577C54.182 279.166 53.4332 279.567 52.6179 279.73C51.8027 279.892 50.9578 279.808 50.1901 279.489C49.4223 279.17 48.7662 278.63 48.3048 277.938C47.8435 277.245 47.5975 276.431 47.5981 275.598C47.6088 274.485 48.0545 273.422 48.8394 272.635C49.6244 271.849 50.686 271.402 51.796 271.391Z" fill="#9FB0D1"/>
</g>
<g clip-path="url(#clip2)">
<path d="M-60.2607 198.004C-54.4878 197.412 -48.6968 196.99 -42.9166 196.57C-40.5199 196.401 -38.1275 196.208 -35.7394 195.991C-33.0914 195.752 -30.4361 195.541 -27.8084 195.131C-25.4878 194.735 -23.2135 194.103 -21.0208 193.247C-20.3455 192.993 -19.6717 192.74 -18.9993 192.489C-18.2153 192.198 -17.4313 191.902 -16.6496 191.608C-14.161 190.769 -11.6715 189.965 -9.1541 189.217C-6.63671 188.469 -4.15385 187.735 -1.69964 186.842C-0.0793683 186.252 1.53374 185.64 3.13969 185.008C6.10036 183.832 8.91989 182.327 11.5456 180.523C13.6372 179.101 15.4612 177.339 17.3198 175.638C18.2297 174.799 19.0993 173.922 19.9631 173.074C20.9147 172.132 21.8093 171.134 22.6421 170.085C23.451 169.075 24.2537 168.075 24.9979 167.017C25.742 165.958 26.4197 164.866 27.1015 163.765C27.86 162.541 28.5148 161.256 29.0591 159.922C29.4933 158.766 29.831 157.576 30.0687 156.364C30.3227 155.195 30.6255 154.051 30.8909 152.897C31.06 152.183 31.2378 151.468 31.3893 150.75C31.7286 149.095 31.8495 147.403 31.7489 145.717C31.7279 145.347 31.6996 144.976 31.664 144.606C31.7962 144.574 31.9286 144.546 32.0586 144.512C33.5226 144.146 34.9638 143.695 36.3749 143.161C37.4248 142.777 38.4391 142.295 39.4447 141.814C40.6261 141.248 41.8145 140.699 43.01 140.166C43.926 139.757 44.8788 139.413 45.8202 139.053C48.2282 138.223 50.6432 137.408 53.0043 136.466C55.4603 135.486 57.834 134.377 60.206 133.212C60.6515 132.991 61.0658 132.75 61.5193 132.503C62.0609 132.208 62.625 131.938 63.1481 131.608C64.4453 130.795 65.7497 130.006 66.9899 129.11C69.4422 127.313 71.7222 125.292 73.8003 123.073C76.2039 120.524 78.1056 117.608 79.9604 114.657C80.2942 114.123 80.5999 113.529 80.9131 112.963C81.2262 112.397 81.5166 111.874 81.7927 111.311C82.8139 109.27 83.7774 107.201 84.3634 104.987C84.9986 102.591 85.6229 100.193 86.1569 97.769C86.7371 95.1342 87.3128 92.4951 87.8887 89.8605C88.0717 89.0233 88.202 88.1789 88.3496 87.3253C88.4812 86.6009 88.5628 85.8802 88.6705 85.1587C88.8573 83.9558 89.123 82.7665 89.4661 81.5985C89.9902 79.9835 90.6561 78.418 91.456 76.9204C92.4472 75.1993 93.5988 73.5871 94.7344 71.9514C95.3419 71.0734 95.9647 70.1971 96.6259 69.3612C98.1613 67.3601 99.7147 65.3759 101.226 63.3602C102.018 62.3 102.805 61.2355 103.58 60.1583C104.354 59.0812 105.052 58.0128 105.764 56.9156C107.141 54.7946 108.449 52.6255 109.792 50.4815C112.191 46.7124 114.794 43.0773 117.59 39.5924C117.929 39.1611 118.403 38.1189 117.884 37.6297C117.769 37.5391 117.633 37.4782 117.489 37.4524C117.345 37.4265 117.196 37.4365 117.057 37.4814C116.414 37.6006 115.819 38.0917 115.382 38.5455C111.725 42.3422 108.592 46.5952 105.758 51.0294C104.389 53.1698 103.05 55.3311 101.667 57.4632C100.284 59.5952 98.8038 61.5511 97.3274 63.5527C95.9538 65.4137 94.498 67.2226 93.1757 69.1192C90.9565 72.3041 88.703 75.5074 87.1615 79.0938C86.4937 80.6817 85.9825 82.331 85.6351 84.0182C85.4625 84.8354 85.3472 85.6728 85.2493 86.5054C85.1603 87.27 85.1523 88.0431 85.0676 88.8076C84.9367 90.0079 84.8123 91.2058 84.638 92.4117C84.2476 94.8947 83.825 97.3698 83.3702 99.8372C82.9806 101.973 82.4242 104.079 81.8896 106.179C81.4634 107.61 80.9069 108.998 80.2269 110.326C79.9056 110.937 79.5842 111.544 79.2627 112.149C78.5652 113.311 77.8585 114.456 77.0966 115.579C76.3346 116.702 75.5418 117.74 74.7367 118.805C73.7411 119.986 72.6759 121.106 71.5466 122.16C70.6074 122.971 69.6787 123.767 68.6919 124.516C67.7799 125.209 66.8397 125.837 65.8842 126.463C64.9291 127.026 63.9718 127.591 62.9732 128.087C61.747 128.713 60.518 129.318 59.2753 129.903C57.0611 130.941 54.811 131.869 52.5452 132.783C50.2038 133.727 47.8008 134.502 45.4714 135.483C44.2549 135.994 43.0839 136.566 41.898 137.153C40.8692 137.663 39.8752 138.24 38.858 138.77C38.0235 139.205 37.1925 139.609 36.3304 139.992C35.6882 140.281 35.0294 140.526 34.3684 140.768C33.3319 141.103 32.2781 141.382 31.2117 141.604C31.1269 141.244 31.0602 140.901 30.9758 140.554C30.6039 138.901 29.9879 137.312 29.1481 135.839C28.3823 134.452 27.3304 133.243 26.0621 132.292C25.398 131.852 24.6864 131.488 23.9409 131.208C23.0585 130.857 22.1374 130.614 21.1971 130.482C19.667 130.262 18.1081 130.357 16.6158 130.76C15.8163 130.983 15.0362 131.27 14.2829 131.619C13.4898 131.996 12.7682 132.509 12.1503 133.133C11.5563 133.742 11.1049 134.476 10.8288 135.281C10.5956 135.955 10.4991 136.669 10.5452 137.381C10.5675 138.967 11.667 140.433 12.7607 141.473C13.9035 142.551 15.3917 143.267 16.8302 143.856C18.4222 144.457 20.0836 144.853 21.7751 145.037C24.24 145.367 26.7378 145.367 29.2029 145.038C29.3757 146.09 29.484 147.152 29.5272 148.217C29.5101 150.322 29.0192 152.354 28.4251 154.364C28.062 155.586 27.7011 156.81 27.3424 158.036C26.9746 159.172 26.5139 160.275 25.9651 161.336C25.1376 162.757 24.174 164.076 23.2218 165.414C22.5071 166.284 21.7876 167.141 21.0213 167.967C20.1742 168.865 19.2845 169.723 18.3918 170.557C16.3607 172.346 14.2301 174.019 12.01 175.568C10.7428 176.309 9.41794 176.947 8.04831 177.474C6.20545 178.097 4.31834 178.581 2.40293 178.921C1.67763 179.056 0.945132 179.243 0.211563 179.319L-2.21763 179.573C-3.00059 179.603 -3.78144 179.63 -4.56504 179.638C-6.15605 179.66 -7.73814 179.763 -9.32237 179.868C-9.79742 179.9 -10.2733 179.977 -10.7364 180.045C-11.2736 180.115 -11.8225 180.162 -12.3498 180.271C-13.5456 180.518 -14.7329 180.76 -15.9139 181.063C-16.5684 181.231 -17.2228 181.402 -17.8775 181.561C-19.6033 181.974 -21.3547 182.271 -23.12 182.45C-24.3323 182.58 -25.5581 182.696 -26.7772 182.819C-29.1655 183.053 -31.5608 183.271 -33.9527 183.459C-40.9062 183.998 -47.8578 184.527 -54.7904 185.26C-56.1679 185.617 -57.4541 186.262 -58.5647 187.151C-60.4834 188.587 -62.2624 190.622 -63.1706 192.867C-63.6991 193.935 -63.8894 195.14 -63.716 196.319L-63.0681 197.495C-62.6807 197.803 -62.2232 198.011 -61.7362 198.1C-61.2491 198.19 -60.7476 198.158 -60.2759 198.007L-60.2607 198.004ZM13.7649 137.282C13.4773 136.706 13.2964 136.083 13.2308 135.442C13.2418 135.149 13.2793 134.858 13.343 134.572C13.3675 134.514 13.3919 134.453 13.4208 134.395L13.4335 134.382C13.8315 134.177 14.2419 133.997 14.6623 133.843C15.5402 133.556 16.4467 133.364 17.366 133.271C19.206 133.245 21.0305 133.61 22.7182 134.344C23.6098 134.792 24.4284 135.372 25.1461 136.066C25.9506 136.871 26.6342 137.789 27.1754 138.79C27.7152 139.823 28.1589 140.903 28.5011 142.018C28.1681 142.051 27.8326 142.079 27.4927 142.102C24.1469 142.221 20.7718 141.936 17.6817 140.565C16.1128 139.777 14.7016 138.777 13.7734 137.273L13.7649 137.282ZM13.0201 134.73C13.1069 134.638 13.205 134.556 13.3009 134.477C13.2162 134.567 13.1136 134.644 13.0201 134.73ZM13.4987 134.222C13.5254 134.167 13.5552 134.113 13.5878 134.06L13.5079 134.24L13.4987 134.222Z" fill="#C5D9DC"/>
</g>
<defs>
<clipPath id="clip0">
<rect width="169" height="170" fill="white" transform="matrix(-1 0 0 1 122 174)"/>
</clipPath>
<clipPath id="clip1">
<rect width="110" height="280" fill="white" transform="matrix(4.37114e-08 1 1 -4.37114e-08 -224 227)"/>
</clipPath>
<clipPath id="clip2">
<rect width="86.4627" height="231.121" fill="white" transform="matrix(-0.818527 -0.574468 -0.574468 0.818527 141.544 49.6702)"/>
</clipPath>
</defs>
</svg>
