<svg width="180" height="369" viewBox="0 0 180 369" fill="none" xmlns="http://www.w3.org/2000/svg">
<g clip-path="url(#clip0)">
<path d="M14.5468 128.584C14.9385 128.207 15.3975 127.871 15.8207 127.513C16.2438 127.155 16.6658 126.728 17.0937 126.342C19.2263 124.486 21.4994 122.798 23.8926 121.292C28.2025 118.47 32.902 116.363 37.6718 114.452C42.7941 112.4 47.9865 110.576 53.2495 108.918C58.2038 107.362 63.209 105.762 68.3156 104.904C69.1691 104.761 70.023 104.63 70.8775 104.511L72.2682 104.357C73.2356 104.376 74.1803 104.654 75.0031 105.163C75.614 105.539 76.1447 106.032 76.5649 106.614C76.985 107.195 77.2862 107.854 77.4513 108.552C77.6164 109.25 77.642 109.974 77.5269 110.682C77.4117 111.39 77.1579 112.069 76.7801 112.679C76.0842 113.814 74.7746 114.944 73.4178 115.143C71.3125 115.445 69.2139 115.807 67.1484 116.307C64.7381 116.886 62.3591 117.594 59.9926 118.323C55.3029 119.77 50.6492 121.239 46.0373 122.962C42.8148 124.191 39.6439 125.507 36.5328 126.977C33.4632 128.434 30.5172 130.139 27.7241 132.073L27.1704 132.493C27.5556 132.519 27.9453 132.548 28.3429 132.595C30.9134 132.732 33.4952 132.629 36.0578 132.557C38.521 132.486 40.9753 132.41 43.4356 132.264C46.1335 132.102 48.8375 131.87 51.5295 131.668C56.046 131.35 60.6074 131.059 65.1419 130.751C72.5794 130.26 80.0157 129.891 87.4593 129.521C93.6809 129.21 99.9217 128.788 106.151 128.877C107.201 128.905 108.23 129.172 109.161 129.659C110.091 130.145 110.898 130.839 111.519 131.685C112.14 132.532 112.559 133.509 112.744 134.543C112.929 135.576 112.874 136.639 112.585 137.648C112.431 138.171 112.295 138.705 112.128 139.22C111.685 140.572 110.932 141.802 109.928 142.81C108.874 143.841 107.7 144.743 106.431 145.494C105.479 146.06 104.484 146.548 103.455 146.955C102.25 147.481 101.039 147.986 99.8448 148.545C95.5806 150.536 91.11 152.019 86.7824 153.842L74.9914 158.808C73.9909 159.232 72.9975 159.654 72.0097 160.067L74.5116 159.823C78.0832 159.474 81.6524 159.1 85.2251 158.74C87.6435 158.514 90.0706 158.288 92.5064 158.06C93.3693 157.972 94.2278 157.881 95.1266 157.814C99.4422 157.488 103.764 157.171 108.092 156.865C110.881 156.666 113.67 156.425 116.469 156.351L130.408 155.979C133.877 155.889 137.364 156.001 140.828 156.192C143.651 156.365 146.459 156.738 149.229 157.31C149.78 157.419 150.331 157.528 150.882 157.706C152.593 158.214 154.14 159.162 155.37 160.456C156.065 161.154 156.668 161.938 157.162 162.789C157.887 164.053 158.265 165.486 158.259 166.943C158.253 168.068 158.098 169.188 157.799 170.273C157.706 170.573 157.595 170.868 157.467 171.156C157.169 171.92 156.818 172.662 156.415 173.376C155.665 174.587 154.753 175.689 153.703 176.652C152.767 177.497 151.767 178.269 150.714 178.962C149.778 179.623 148.81 180.265 147.852 180.912C146.018 182.14 144.166 183.289 142.227 184.348C140.288 185.407 138.29 186.411 136.344 187.49L130.376 190.802C126.606 192.896 122.951 195.189 119.425 197.671C117.919 198.767 116.422 199.88 114.966 201.038C114.168 201.685 113.401 202.362 112.603 203.009C112.036 203.449 111.493 203.921 110.979 204.421C111.023 204.449 111.073 204.479 111.098 204.538C111.372 204.717 111.655 204.88 111.947 205.027C113.205 205.479 114.505 205.808 115.826 206.01C117.957 206.321 120.099 206.603 122.24 206.786C124.848 207.014 127.474 207.049 130.093 207.068C132.545 207.095 134.953 207.095 137.375 207.031L151.798 206.665C158.285 206.475 164.745 206.038 171.254 205.842L184.729 205.421C188.157 205.318 191.582 205.411 195.009 205.449C197.707 205.479 200.382 205.576 203.072 205.841C204.388 205.969 205.711 206.138 207.015 206.357C208.162 206.532 209.291 206.811 210.388 207.189C211.136 207.432 211.816 207.849 212.372 208.405C212.739 208.85 213.067 209.326 213.352 209.827C213.63 210.36 213.836 210.926 213.967 211.513C214.137 212.379 214.128 213.27 213.942 214.133C213.586 216.255 212.368 218.262 211.057 219.927C209.325 222.055 207.354 223.977 205.182 225.655C203.202 227.244 201.069 228.64 198.954 230.036C196.742 231.489 194.473 232.845 192.199 234.168C189.485 235.745 186.831 237.427 184.16 239.075C182.548 240.074 181.015 241.185 179.425 242.248C180.247 242.475 181.079 242.66 181.92 242.801C189.127 243.804 196.407 243.821 203.67 243.785L218.408 243.731L240.756 243.63C248.117 243.604 255.45 243.727 262.837 243.761C265.472 243.783 268.108 243.954 270.744 244.076C275.177 244.282 279.615 244.488 284.058 244.692C284.887 244.731 285.71 244.858 286.525 244.969L293.829 245.803C296.225 246.083 298.622 246.358 301.02 246.63C302.096 246.759 303.168 246.873 304.236 247.064C308.531 247.832 312.822 248.61 317.109 249.398C318.617 249.667 320.112 250.139 321.596 250.518C323.28 250.933 324.934 251.366 326.585 251.866C328.756 252.523 330.931 253.196 333.104 253.849C333.985 254.107 334.731 254.699 335.182 255.499C335.632 256.299 335.753 257.243 335.518 258.131C335.258 259.02 334.657 259.771 333.845 260.217C333.033 260.664 332.077 260.771 331.187 260.514C328.678 259.692 326.18 258.852 323.675 258.034C321.171 257.215 318.684 256.629 316.207 255.926C315.673 255.79 315.122 255.681 314.54 255.553C313.022 255.24 311.481 254.955 309.957 254.651C307.388 254.142 304.819 253.634 302.25 253.125C298.533 252.631 294.815 252.161 291.089 251.674C288.33 251.31 285.578 250.865 282.805 250.696C277.955 250.403 273.107 250.107 268.261 249.808C266.875 249.723 265.484 249.636 264.094 249.556C263.081 249.497 262.045 249.535 261.042 249.501C253.641 249.409 246.249 249.201 238.834 249.193C231.278 249.172 223.726 249.159 216.177 249.154C211.416 249.153 206.656 249.16 201.898 249.174C197.463 249.179 193.006 249.188 188.578 248.9C185.93 248.728 183.274 248.489 180.635 248.07C179.272 247.879 177.929 247.56 176.625 247.118C176.042 246.903 175.473 246.651 174.921 246.364C174.278 245.967 173.672 245.514 173.108 245.012C172.482 244.612 172.029 243.99 171.84 243.272C171.748 242.913 171.73 242.539 171.787 242.173C171.845 241.807 171.977 241.457 172.175 241.144C172.741 240.335 173.379 239.579 174.083 238.887C174.707 238.312 175.436 237.827 176.109 237.314L178.432 235.539C179.691 234.582 180.976 233.685 182.294 232.813C183.87 231.773 185.433 230.713 187.023 229.699C188.909 228.497 190.839 227.371 192.736 226.181C194.632 224.991 196.513 223.694 198.354 222.383C200.924 220.57 203.281 218.471 205.38 216.127C205.962 215.338 206.475 214.5 206.914 213.623L207.029 213.285C206.2 213.067 205.361 212.893 204.515 212.763C201.586 212.355 198.634 212.125 195.677 212.075C193.171 212.034 190.666 211.988 188.161 211.939C184.717 211.877 181.3 212.054 177.824 212.165C170.037 212.381 162.257 212.736 154.475 213.084C151.498 213.217 148.52 213.293 145.542 213.388C140.946 213.534 136.353 213.695 131.741 213.745C129.317 213.772 126.899 213.79 124.478 213.72C121.887 213.638 119.324 213.327 116.749 213.076C114.328 212.826 111.843 212.569 109.54 211.744C108.443 211.35 107.407 210.8 106.466 210.113C105.305 209.252 104.328 208.166 103.594 206.921C103.311 206.393 103.102 205.829 102.974 205.244C102.809 204.474 102.816 203.678 102.996 202.912C103.247 201.85 103.661 200.834 104.225 199.899C104.927 198.747 105.771 197.688 106.737 196.747C107.707 195.687 108.722 194.667 109.763 193.663C111.533 191.964 113.437 190.408 115.361 188.89C117.652 187.1 120.003 185.403 122.414 183.798C125.526 181.742 128.71 179.792 131.872 177.866C134.756 176.09 137.74 174.486 140.537 172.571C141.446 171.893 142.337 171.205 143.233 170.519C143.595 170.241 143.952 169.96 144.299 169.666C143.262 169.586 142.222 169.529 141.181 169.496C138.4 169.409 135.631 169.385 132.85 169.421C131.07 169.454 129.29 169.517 127.508 169.585L114.548 170.063C113.531 170.1 112.508 170.208 111.494 170.29C108.956 170.476 106.421 170.665 103.887 170.857C100.691 171.096 97.4743 171.248 94.2937 171.583C87.2638 172.305 80.2337 173.059 73.2059 173.758L59.2019 175.133C57.6505 175.287 56.1001 175.429 54.54 175.547C52.2284 175.723 49.9291 175.919 47.6102 175.905C46.0611 175.871 44.5167 175.721 42.9899 175.457C41.7847 175.213 40.5954 174.897 39.4287 174.509C38.2388 174.174 37.1595 173.529 36.3014 172.639C35.4434 171.75 34.8376 170.648 34.5462 169.447C34.2548 168.246 34.2883 166.989 34.6433 165.805C34.9983 164.621 35.662 163.553 36.5663 162.71C36.9163 162.351 37.2564 161.997 37.6278 161.663C37.7714 161.56 37.9168 161.464 38.0559 161.358C38.6762 160.876 39.3206 160.426 39.9868 160.01C40.6143 159.611 41.2864 159.27 41.9102 158.886L44.9018 157.158C46.3341 156.332 47.8079 155.599 49.2872 154.858C50.7665 154.116 52.1368 153.351 53.6 152.686L59.4481 150.053C62.3581 148.75 65.2591 147.442 68.2098 146.213L77.4788 142.381C75.6044 142.417 73.7273 142.458 71.831 142.53C67.3763 142.735 62.9132 142.936 58.4418 143.134C51.8853 143.437 45.3461 143.923 38.7858 144.051C33.8789 144.13 28.9469 144.28 24.0671 143.58C22.7241 143.374 21.3721 143.243 20.0356 143.017C19.5254 142.932 19.0263 142.83 18.5264 142.709C17.7329 142.479 16.9634 142.173 16.2286 141.795C14.8007 141.143 13.6051 140.072 12.8011 138.725C11.7907 136.903 11.4957 134.77 11.9737 132.742C12.1339 131.997 12.4232 131.287 12.8285 130.642C13.3039 129.891 13.8714 129.201 14.5178 128.591L14.5468 128.584ZM22.3192 136.712L22.2615 136.806L22.3275 136.698L22.3192 136.712ZM110.444 203.47L110.45 203.542L110.444 203.47ZM206.989 212.261C207.046 212.401 207.095 212.542 207.147 212.679C207.105 212.536 207.052 212.396 206.989 212.261ZM207.16 212.255C207.173 212.355 207.185 212.455 207.191 212.557C207.186 212.456 207.176 212.355 207.16 212.255Z" fill="#FCE0E8"/>
</g>
<g clip-path="url(#clip1)">
<path d="M14.261 376.864C19.8399 372.062 25.5616 367.422 31.2739 362.792C33.6462 360.878 35.9966 358.942 38.325 356.985C40.9078 354.816 43.519 352.671 45.955 350.339C48.0821 348.245 49.9891 345.941 51.6465 343.464C52.164 342.711 52.6811 341.961 53.1978 341.213C53.8013 340.343 54.4014 339.468 55.001 338.597C56.9792 335.923 58.9839 333.285 61.0586 330.684C63.1333 328.083 65.1823 325.522 67.0856 322.818C68.3415 321.031 69.5746 319.229 70.785 317.409C73.0082 314.044 74.8447 310.441 76.2602 306.67C77.3995 303.682 78.0106 300.535 78.7031 297.428C79.0377 295.9 79.3023 294.362 79.5819 292.857C79.8843 291.193 80.0865 289.511 80.1874 287.822C80.2912 286.19 80.3966 284.574 80.3977 282.939C80.3988 281.304 80.3066 279.683 80.2121 278.05C80.1072 276.234 79.8496 274.429 79.4419 272.655C79.0492 271.144 78.5311 269.669 77.893 268.243C77.3032 266.85 76.7823 265.447 76.2153 264.061C75.8691 263.199 75.5319 262.331 75.1646 261.478C74.3088 259.521 73.1982 257.684 71.8612 256.013C71.5685 255.645 71.2684 255.283 70.9609 254.926C71.075 254.796 71.1925 254.672 71.3027 254.542C72.5601 253.101 73.7313 251.589 74.8102 250.012C75.6226 248.852 76.3268 247.618 77.0222 246.391C77.8389 244.948 78.6751 243.518 79.5307 242.099C80.1857 241.011 80.9262 239.964 81.6439 238.909C83.5448 236.303 85.4639 233.707 87.2339 231.019C89.0753 228.223 90.7369 225.354 92.3553 222.427C92.6581 221.876 92.9132 221.325 93.205 220.741C93.5531 220.042 93.9435 219.354 94.2473 218.633C95.0039 216.851 95.7855 215.088 96.4218 213.261C97.6622 209.623 98.5593 205.878 99.1014 202.075C99.742 197.695 99.5914 193.3 99.3658 188.901C99.3232 188.107 99.2075 187.271 99.12 186.458C99.0325 185.646 98.9521 184.893 98.8284 184.111C98.4003 181.26 97.8912 178.42 96.8836 175.706C95.7938 172.767 94.6912 169.834 93.4758 166.94C92.1544 163.794 90.8252 160.647 89.4993 157.504C89.078 156.506 88.5966 155.538 88.1264 154.548C87.7341 153.703 87.2923 152.899 86.8772 152.075C86.1925 150.695 85.6 149.272 85.1036 147.815C84.469 145.765 84.0183 143.663 83.7568 141.533C83.5312 139.034 83.5521 136.531 83.5391 134.015C83.5301 132.667 83.5383 131.308 83.6159 129.964C83.7522 126.78 83.9197 123.601 84.0199 120.42C84.0699 118.748 84.1122 117.076 84.1312 115.4C84.1501 113.724 84.0962 112.113 84.0362 110.461C83.9199 107.268 83.6964 104.076 83.5285 100.884C83.2718 95.2451 83.3257 89.5967 83.69 83.9638C83.7278 83.2718 83.4596 81.8501 82.5619 81.7206C82.3757 81.7106 82.1899 81.7461 82.0208 81.8241C81.8516 81.902 81.7043 82.0201 81.5919 82.1678C81.0096 82.7576 80.7492 83.6972 80.6263 84.4833C79.5923 91.0642 79.4377 97.7365 79.728 104.378C79.866 107.586 80.0516 110.793 80.1696 114.001C80.2875 117.21 80.1758 120.307 80.1012 123.448C80.031 126.37 79.8369 129.297 79.8461 132.218C79.8629 137.122 79.8573 142.07 80.8732 146.898C81.3383 149.025 82.0113 151.101 82.8827 153.098C83.3002 154.069 83.7922 155.018 84.2986 155.95C84.7647 156.806 85.3215 157.611 85.792 158.463C86.533 159.799 87.279 161.128 87.9787 162.502C89.3869 165.353 90.7559 168.219 92.0855 171.101C93.2408 173.592 94.2003 176.174 95.1789 178.734C95.7804 180.523 96.2153 182.362 96.4781 184.229C96.5897 185.094 96.6991 185.955 96.8063 186.814C96.9294 188.522 97.0304 190.219 97.0574 191.933C97.0845 193.647 97.0178 195.297 96.9578 196.982C96.7841 198.926 96.4936 200.858 96.0878 202.767C95.7027 204.288 95.3171 205.785 94.8372 207.276C94.3936 208.654 93.8734 209.986 93.3361 211.327C92.7527 212.602 92.1689 213.881 91.4918 215.119C90.6719 216.656 89.8348 218.174 88.9677 219.68C87.421 222.361 85.7561 224.954 84.0641 227.543C82.3158 230.219 80.3801 232.765 78.6711 235.47C77.7782 236.881 76.9763 238.322 76.1704 239.79C75.4721 241.064 74.8587 242.383 74.1866 243.669C73.6354 244.724 73.0655 245.745 72.4478 246.767C71.9906 247.533 71.483 248.263 70.9715 248.993C70.1371 250.092 69.2439 251.146 68.2958 252.15C67.9445 251.839 67.6243 251.533 67.2829 251.235C65.687 249.795 63.8842 248.599 61.9337 247.686C60.122 246.806 58.1429 246.319 56.1274 246.257C55.1143 246.284 54.1076 246.424 53.1261 246.675C51.9511 246.953 50.8139 247.37 49.7386 247.916C47.9844 248.799 46.4302 250.029 45.171 251.529C44.5014 252.34 43.8988 253.203 43.369 254.11C42.8191 255.076 42.4421 256.129 42.2549 257.224C42.0817 258.285 42.1478 259.371 42.4485 260.404C42.6983 261.27 43.1196 262.078 43.6878 262.781C44.8707 264.406 47.0869 265.123 48.9859 265.405C50.9638 265.691 53.037 265.351 54.9655 264.916C57.0621 264.382 59.0822 263.586 60.9779 262.548C63.7857 261.1 66.3871 259.288 68.7138 257.159C69.6625 258.121 70.551 259.14 71.3743 260.21C72.8951 262.4 73.8689 264.857 74.7198 267.368C75.2345 268.895 75.7531 270.422 76.2755 271.95C76.7226 273.392 77.0496 274.867 77.253 276.362C77.4302 278.433 77.3904 280.496 77.3766 282.57C77.2683 283.989 77.1456 285.398 76.9512 286.808C76.7255 288.351 76.4259 289.884 76.1058 291.395C75.2986 294.719 74.3027 297.996 73.1228 301.209C72.3446 302.895 71.4308 304.516 70.3904 306.056C68.9267 308.037 67.3149 309.907 65.5688 311.649C64.9119 312.315 64.2861 313.04 63.5777 313.651L61.234 315.677C60.4401 316.276 59.6469 316.871 58.8364 317.447C57.196 318.625 55.6238 319.88 54.051 321.138C53.5792 321.516 53.14 321.941 52.7076 322.347C52.1995 322.81 51.662 323.257 51.1927 323.752C50.1278 324.875 49.0684 325.987 48.06 327.158C47.5009 327.806 46.9452 328.459 46.3795 329.099C44.8835 330.777 43.2768 332.356 41.5699 333.823C40.4019 334.836 39.2106 335.847 38.031 336.859C35.7146 338.833 33.3799 340.798 31.0264 342.728C24.1795 348.332 17.3266 353.924 10.6431 359.714C9.46984 361.083 8.60157 362.684 8.09541 364.41C7.14682 367.287 6.78118 370.682 7.47605 373.663C7.70668 375.152 8.38877 376.535 9.43137 377.629L10.965 378.374C11.5938 378.412 12.2223 378.295 12.7947 378.034C13.3672 377.773 13.866 377.376 14.2471 376.878L14.261 376.864ZM46.9688 260.343C46.2482 259.955 45.6041 259.442 45.0677 258.827C44.8651 258.516 44.6914 258.188 44.5486 257.846C44.5321 257.769 44.5123 257.687 44.5003 257.607L44.5036 257.583C44.7685 257.083 45.0645 256.599 45.39 256.135C46.0939 255.2 46.8976 254.344 47.7872 253.581C49.684 252.218 51.8513 251.272 54.1448 250.806C55.4007 250.622 56.6773 250.628 57.9314 250.824C59.3578 251.073 60.7403 251.526 62.0358 252.169C63.3529 252.845 64.6046 253.64 65.7752 254.544C65.453 254.821 65.1236 255.092 64.7865 255.363C61.3898 257.915 57.6663 260.069 53.4468 260.895C51.237 261.218 49.0364 261.208 46.9711 260.327L46.9688 260.343ZM44.3277 258.244C44.3509 258.085 44.3934 257.93 44.4354 257.778C44.4129 257.933 44.3625 258.087 44.3277 258.244ZM44.4553 257.372C44.4425 257.295 44.434 257.217 44.4297 257.139L44.4775 257.383L44.4553 257.372Z" fill="#DFEAEC"/>
</g>
<path d="M176.68 244.045C176.382 243.223 176.335 242.331 176.545 241.481C176.755 240.632 177.212 239.863 177.859 239.272C178.507 238.682 179.314 238.296 180.181 238.163C181.047 238.031 181.933 238.158 182.726 238.528C183.52 238.898 184.185 239.495 184.638 240.243C185.091 240.992 185.312 241.857 185.272 242.731C185.232 243.605 184.933 244.448 184.414 245.153C183.894 245.859 183.177 246.394 182.353 246.693C181.248 247.083 180.034 247.024 178.973 246.528C177.912 246.033 177.088 245.142 176.68 244.045Z" fill="#9FB0D1"/>
<path d="M99.1958 197.049C98.897 196.227 98.8494 195.334 99.0589 194.484C99.2684 193.634 99.7257 192.865 100.373 192.274C101.02 191.683 101.828 191.296 102.695 191.164C103.561 191.031 104.447 191.158 105.241 191.528C106.034 191.899 106.7 192.496 107.153 193.244C107.606 193.993 107.826 194.859 107.786 195.733C107.746 196.608 107.447 197.451 106.927 198.156C106.407 198.861 105.689 199.396 104.865 199.695C103.76 200.083 102.547 200.024 101.487 199.529C100.427 199.034 99.6045 198.144 99.1958 197.049Z" fill="#9FB0D1"/>
<path d="M111.936 111.773C111.637 110.951 111.589 110.058 111.799 109.208C112.008 108.358 112.465 107.589 113.113 106.998C113.76 106.407 114.568 106.021 115.434 105.888C116.301 105.755 117.187 105.882 117.981 106.253C118.774 106.623 119.44 107.22 119.893 107.969C120.346 108.717 120.566 109.584 120.526 110.458C120.486 111.332 120.187 112.175 119.666 112.88C119.146 113.585 118.429 114.121 117.604 114.419C116.5 114.808 115.287 114.748 114.227 114.253C113.167 113.759 112.344 112.868 111.936 111.773Z" fill="#9FB0D1"/>
<path d="M62.5979 74.4661C62.3025 73.6434 62.258 72.7515 62.47 71.9029C62.682 71.0544 63.1411 70.2873 63.7891 69.6985C64.4372 69.1097 65.2452 68.7257 66.1112 68.5949C66.9772 68.4641 67.8622 68.5924 68.6545 68.9636C69.4468 69.3348 70.1109 69.9323 70.5628 70.6805C71.0148 71.4288 71.2343 72.2943 71.1938 73.1677C71.1532 74.0411 70.8543 74.8832 70.3349 75.5878C69.8155 76.2923 69.0988 76.8276 68.2754 77.126C67.1699 77.5148 65.9564 77.4553 64.8956 76.9602C63.8348 76.4651 63.0114 75.5741 62.6024 74.4785L62.5979 74.4661Z" fill="#9FB0D1"/>
<path d="M104.123 34.6013C103.825 33.7789 103.778 32.8864 103.988 32.0366C104.198 31.1868 104.656 30.418 105.303 29.8275C105.951 29.2369 106.759 28.8511 107.625 28.7188C108.492 28.5865 109.378 28.7137 110.171 29.0844C110.964 29.455 111.63 30.0524 112.082 30.8009C112.535 31.5495 112.755 32.4156 112.715 33.2897C112.674 34.1638 112.375 35.0067 111.855 35.7116C111.335 36.4165 110.618 36.9519 109.793 37.25C108.688 37.6396 107.475 37.5802 106.414 37.0848C105.353 36.5893 104.531 35.6975 104.123 34.6013Z" fill="#9FB0D1"/>
<path d="M89.2 144.145C88.9019 143.323 88.8549 142.43 89.065 141.581C89.275 140.731 89.7327 139.962 90.3801 139.371C91.0275 138.781 91.8355 138.395 92.7019 138.263C93.5684 138.131 94.4543 138.258 95.2477 138.628C96.0411 138.999 96.7062 139.596 97.159 140.345C97.6118 141.093 97.8319 141.96 97.7915 142.834C97.751 143.708 97.4519 144.551 96.9318 145.256C96.4118 145.961 95.6942 146.496 94.8699 146.794C93.7648 147.184 92.5512 147.124 91.4906 146.629C90.4301 146.133 89.6075 145.241 89.2 144.145Z" fill="#9FB0D1"/>
<path d="M161.421 167.351C161.119 166.529 161.068 165.635 161.275 164.784C161.482 163.933 161.937 163.161 162.583 162.568C163.229 161.975 164.037 161.586 164.904 161.451C165.771 161.316 166.658 161.442 167.453 161.811C168.248 162.18 168.915 162.777 169.37 163.525C169.824 164.274 170.046 165.14 170.006 166.015C169.967 166.89 169.668 167.734 169.148 168.44C168.628 169.146 167.909 169.682 167.084 169.981C165.98 170.369 164.767 170.31 163.707 169.815C162.647 169.32 161.824 168.43 161.416 167.335L161.421 167.351Z" fill="#9FB0D1"/>
<path d="M116.991 252.944C116.692 252.122 116.645 251.23 116.855 250.38C117.065 249.53 117.523 248.762 118.17 248.171C118.817 247.58 119.625 247.194 120.491 247.062C121.358 246.929 122.243 247.056 123.037 247.427C123.83 247.797 124.495 248.394 124.948 249.142C125.402 249.89 125.622 250.756 125.582 251.63C125.542 252.504 125.244 253.347 124.724 254.052C124.205 254.757 123.487 255.293 122.664 255.592C121.558 255.981 120.344 255.922 119.283 255.427C118.222 254.932 117.399 254.04 116.991 252.944Z" fill="#9FB0D1"/>
<path d="M173.285 285.944C172.986 285.122 172.938 284.229 173.148 283.38C173.357 282.53 173.814 281.761 174.461 281.169C175.108 280.578 175.916 280.192 176.782 280.059C177.649 279.926 178.535 280.053 179.328 280.423C180.122 280.793 180.787 281.39 181.241 282.138C181.694 282.886 181.915 283.752 181.875 284.626C181.835 285.5 181.537 286.343 181.017 287.049C180.498 287.754 179.781 288.29 178.957 288.589C177.852 288.977 176.639 288.918 175.578 288.423C174.518 287.929 173.694 287.039 173.285 285.944Z" fill="#9FB0D1"/>
<path d="M59.0062 189.947C58.7081 189.124 58.6611 188.232 58.8711 187.382C59.0812 186.532 59.5388 185.763 60.1862 185.173C60.8336 184.582 61.6416 184.196 62.5081 184.064C63.3745 183.932 64.2605 184.059 65.0538 184.43C65.8472 184.8 66.5124 185.398 66.9652 186.146C67.418 186.895 67.6381 187.761 67.5976 188.635C67.5572 189.509 67.258 190.352 66.738 191.057C66.2179 191.762 65.5004 192.297 64.6761 192.595C63.5709 192.985 62.3574 192.925 61.2968 192.43C60.2362 191.935 59.4136 191.043 59.0062 189.947Z" fill="#9FB0D1"/>
<path d="M64.2046 114.109C63.9059 113.287 63.8582 112.394 64.0676 111.544C64.277 110.694 64.7341 109.925 65.3811 109.334C66.028 108.743 66.8358 108.357 67.7021 108.224C68.5685 108.091 69.4545 108.217 70.2482 108.587C71.0418 108.957 71.7074 109.554 72.1608 110.302C72.6141 111.051 72.8349 111.917 72.7951 112.791C72.7553 113.665 72.4567 114.508 71.9372 115.213C71.4177 115.919 70.7005 116.455 69.8764 116.753C68.7716 117.143 67.5583 117.084 66.4976 116.589C65.4369 116.095 64.6135 115.204 64.2046 114.109Z" fill="#9FB0D1"/>
<path d="M11.0648 66.332C10.7667 65.5096 10.7197 64.617 10.9297 63.7673C11.1398 62.9175 11.5974 62.1487 12.2448 61.5582C12.8922 60.9676 13.7002 60.5817 14.5667 60.4495C15.4331 60.3172 16.3191 60.4444 17.1125 60.815C17.9058 61.1857 18.571 61.783 19.0238 62.5316C19.4766 63.2801 19.6967 64.1463 19.6562 65.0204C19.6158 65.8945 19.3166 66.7373 18.7966 67.4423C18.2765 68.1472 17.559 68.6826 16.7347 68.9807C15.6295 69.3693 14.4163 69.3096 13.3559 68.8142C12.2956 68.3189 11.4729 67.4276 11.0648 66.332Z" fill="#9FB0D1"/>
<path d="M46.7651 27.6962C46.4663 26.8738 46.4187 25.9812 46.6282 25.1312C46.8378 24.2811 47.295 23.5119 47.9422 22.9209C48.5894 22.3299 49.3973 21.9436 50.2638 21.8109C51.1304 21.6782 52.0165 21.805 52.8101 22.1754C53.6038 22.5458 54.2693 23.1431 54.7223 23.8916C55.1754 24.6402 55.3957 25.5064 55.3555 26.3806C55.3152 27.2549 55.0161 28.0979 54.496 28.803C53.976 29.5081 53.2583 30.0436 52.4339 30.3418C51.3293 30.7303 50.1166 30.6707 49.0566 30.176C47.9966 29.6813 47.1739 28.7909 46.7651 27.6962Z" fill="#9FB0D1"/>
<defs>
<clipPath id="clip0">
<rect width="86.3196" height="186.324" fill="white" transform="matrix(-0.522551 0.852608 0.852608 0.522551 45.4541 77.4084)"/>
</clipPath>
<clipPath id="clip1">
<rect width="110" height="292" fill="white" transform="matrix(-1 0 0 1 116 77)"/>
</clipPath>
</defs>
</svg>
