<svg xmlns="http://www.w3.org/2000/svg" viewBox="0 0 466.34 93.63"><defs><style>.cls-1{fill:#fff;}</style></defs><g id="Layer_2" data-name="Layer 2"><g id="Layer_1-2" data-name="Layer 1"><path class="cls-1" d="M288.86,92.76c-1.41-3.37-2.95-6.68-4.21-10.11C280,70,275.49,57.35,270.92,44.7c-.06-.17-.14-.32-.3-.7-2.35,16.24-4.94,32.21-6.21,48.39h-3.82c1.64-19.61,5.33-38.83,7.24-58.36l3.05-.42q9.08,25.08,18.1,50l.33,0L308.49,34l3.08.24c2,19.61,4,39.1,6.05,58.64H313.8q-2.46-24.32-4.93-48.58l-.14-.07c-.13.27-.27.53-.38.81-3.48,9-6.88,18-10.44,26.9-2.65,6.66-5.49,13.23-8.24,19.84-.14.33-.31.64-.47,1Z"/><path class="cls-1" d="M210.64,18.57c-.37,1.27-.71,2.44-1.08,3.73-1.13-.24-2.26-.48-3.4-.7a52.41,52.41,0,0,0-17.08-.85,24,24,0,0,0-14.73,7.74,33.25,33.25,0,0,0-7.72,14.45C164,52.57,163.48,62.27,166,72a24.44,24.44,0,0,0,6.62,11.85,17.19,17.19,0,0,0,11.49,5.26c5.63.24,11.22,0,16.33-2.63a80.7,80.7,0,0,0,7.71-5.08c.5-.34.94-.75,1.54-1.22l2.18,2.58c-1.16,1-2.24,2.13-3.44,3a34.76,34.76,0,0,1-19.06,7,24.92,24.92,0,0,1-12-1.73c-6.74-3-11.1-8.2-13.72-15a43.17,43.17,0,0,1-2.61-13.82,61.93,61.93,0,0,1,1.89-20,44,44,0,0,1,7.47-14.76,25.59,25.59,0,0,1,17.69-10.3A63.75,63.75,0,0,1,210,18.41C210.17,18.44,210.34,18.49,210.64,18.57Z"/><path class="cls-1" d="M370.38,60.35c.51.32.87.58,1.26.79,3.91,2,5.67,5.43,6.17,9.64A29.38,29.38,0,0,1,376.63,83a11.82,11.82,0,0,1-9.36,8.72c-2.77.58-5.6.87-8.57,1.31-.15-19.83-.49-39.38,0-59,3.43.1,6.8-.31,10.1.5a8.18,8.18,0,0,1,5.46,4.34,17.51,17.51,0,0,1,1.84,9.94A30.16,30.16,0,0,1,374.78,55,8.82,8.82,0,0,1,370.38,60.35Zm-8.14,28.57c1.56-.29,2.88-.51,4.2-.79a8.42,8.42,0,0,0,6.8-6.3,25.14,25.14,0,0,0,.79-11,8.63,8.63,0,0,0-6.26-7.4,34.73,34.73,0,0,0-5.21-.85.74.74,0,0,0-.32.08Zm0-30.45c4.38.65,7.94-1.43,9.29-5.3a17.17,17.17,0,0,0,.44-9.91c-1.06-4.36-5.14-6.69-9.73-5.52Z"/><path class="cls-1" d="M119.91,32a10.61,10.61,0,0,1,.53,1.18q6,18.59,12.05,37.19,3.57,11,7.17,22c.08.25.15.51.25.83h-4.08c-3.51-10.94-7-21.88-10.58-32.94h-12.8q-6,15.9-12.09,32.1c-.47,0-1.15.16-1.83.19s-1.35,0-2.14,0c3.79-10.25,7.54-20.37,11.29-30.5C114.86,42.71,118.88,32.71,119.91,32Zm-.62,10c-1.91,5-3.76,9.8-5.63,14.7h10.49C122.52,51.75,120.93,46.93,119.29,42Z"/><path class="cls-1" d="M38.73,59.38,26.17,92.61H22.26c.16-.46.26-.79.38-1.11q8.09-21.15,16.17-42.32C41,43.39,43.22,37.59,45.44,31.8a4.56,4.56,0,0,1,.61-.87l.29.1c1,2.88,2.08,5.73,3,8.64C53,51.44,56.5,63.23,60.14,75c1.53,4.92,3.19,9.8,4.84,14.68a31.59,31.59,0,0,0,1.49,3.13H62.25c-4.16-10.92-7.38-22.22-11-33.43ZM45.67,41.3l-.37,0c-1.72,4.76-3.43,9.52-5.18,14.35h10C48.6,50.82,47.13,46.06,45.67,41.3Z"/><path class="cls-1" d="M236.62,31.2c7.44,20.24,13.74,40.86,20.41,61.44h-3.84c-3.62-11.09-7.22-22.16-10.87-33.35H229.45c-4,10.94-8.66,21.79-12,33.08H213c7.11-19,14.16-37.88,21.23-56.72.58-1.53,1.38-3,2.07-4.48Zm-.41,9.7c-1.88,5.06-3.67,9.89-5.5,14.84,3.58-.15,7,.25,10.39-.21C239.46,50.64,237.87,45.88,236.21,40.9Z"/><path class="cls-1" d="M92.71,92.86H89.33c-.16-.27-.35-.57-.52-.88-3.58-6.51-6.08-13.48-8.46-20.49-1-2.81-1.9-5.62-2.76-8.46-.64-2.1-.4-2.58,1.51-3.63,1.05-.58,2.12-1.11,3.2-1.63a6,6,0,0,0,3.11-3.34,15.81,15.81,0,0,0,.06-12,6.23,6.23,0,0,0-4.52-4c-1.82-.42-3.69-.62-5.7-.94C74.63,56,75.62,74.25,75,92.6H71.64c-.49-19.51,0-39-.19-58.56.23-.1.36-.22.49-.21,2.85.18,5.71.21,8.52.59,4.17.56,7,3,8.47,6.93a19.26,19.26,0,0,1,.33,13.3A11,11,0,0,1,84.21,61L81.3,62.59A286.3,286.3,0,0,0,92.71,92.86Z"/><path class="cls-1" d="M1.34,93.63V90.1c1.39-1.1,2.77-2.16,4.11-3.27,4.11-3.41,7.63-7.31,9.59-12.38S18,64,16.6,58.43a21.06,21.06,0,0,0-4-7.88c-1.66-2.12-3.51-4.1-5.15-6.24a53,53,0,0,1-5-7c-3.12-5.88-3-12.1-1.26-18.37C2.69,13.52,5.8,9.18,9.68,5.32A25.57,25.57,0,0,1,15.52.43l.72-.37A2.54,2.54,0,0,1,16.57,0c0,1.19,0,2.35,0,3.51,0,.26-.32.55-.55.76a50.66,50.66,0,0,0-7.81,8.55C3.85,19.28,2.56,26.22,5.06,33.7A22.53,22.53,0,0,0,9,40.54c1.83,2.3,3.74,4.53,5.59,6.81,2.58,3.17,4.83,6.54,5.77,10.57a27.94,27.94,0,0,1-4,22A46.67,46.67,0,0,1,4.81,91.84a18.69,18.69,0,0,1-2.58,1.47A6,6,0,0,1,1.34,93.63Z"/><path class="cls-1" d="M332.4,92.84h-3.58V33.65c3.14.1,6.44.08,9.71.35a7.29,7.29,0,0,1,5.3,3.37,17.49,17.49,0,0,1,2.75,7,23.32,23.32,0,0,1-.15,9.91c-1.23,5.09-4.14,7.62-9.34,8.12-1.52.14-3,.17-4.69.26Zm.05-55V59c1.85-.13,3.61-.18,5.36-.41a5.16,5.16,0,0,0,4.62-3.84,19,19,0,0,0,.76-3.5,20.06,20.06,0,0,0-1.34-10.13,5.37,5.37,0,0,0-3.35-3.29A10.65,10.65,0,0,0,332.45,37.82Z"/><path class="cls-1" d="M393.17,37.58v21h11.56v3.6H393.19V88.56h12.33v3.9c-5.13-.61-10.28.39-15.35-.55a8,8,0,0,1-.75-3.9c.05-8.55.12-17.1.16-25.64a7.59,7.59,0,0,0-.27-1.47,1.78,1.78,0,0,1-.08-.87c.71-1.73.42-3.55.42-5.32,0-6.6-.07-13.2-.11-19.79,0-.24,0-.48,0-.8h16v3.46Z"/><path class="cls-1" d="M422.5,33.68h3.6v55h11.18v3.61h-12.6c-1.6,0-2.19-.57-2.2-2.14q0-27.7-.05-55.41C422.43,34.4,422.47,34.1,422.5,33.68Z"/><path class="cls-1" d="M455.17,33.61V88.55h11.17V92c-.23,0-.49,0-.75,0l-11.87,0c-1.62,0-2.15-.54-2.15-2.17q0-27.63-.09-55.25c0-.83.27-1.12,1.1-1.07S454.3,33.61,455.17,33.61Z"/></g></g></svg>
