<svg width="35" height="34" viewBox="0 0 35 34" fill="none" xmlns="http://www.w3.org/2000/svg">
<path d="M24.6739 8.75647H11.9247C11.1156 8.75647 10.4536 9.44577 10.4536 10.2882V23.5636C10.4536 24.4061 11.1156 25.0954 11.9247 25.0954H24.6739C25.4829 25.0954 26.1449 24.4061 26.1449 23.5636V10.2882C26.1449 9.44577 25.4829 8.75647 24.6739 8.75647ZM21.2414 11.3094C21.2414 11.0286 21.462 10.7988 21.7317 10.7988H23.6932C23.9629 10.7988 24.1835 11.0286 24.1835 11.3094V13.3518C24.1835 13.6326 23.9629 13.8624 23.6932 13.8624H21.7317C21.462 13.8624 21.2414 13.6326 21.2414 13.3518V11.3094ZM18.2993 13.8624C19.9233 13.8624 21.2414 15.2348 21.2414 16.9259C21.2414 18.617 19.9233 19.9895 18.2993 19.9895C16.6752 19.9895 15.3571 18.617 15.3571 16.9259C15.3571 15.2348 16.6752 13.8624 18.2993 13.8624ZM24.1835 22.5424C24.1835 22.8232 23.9629 23.053 23.6932 23.053H12.9054C12.6357 23.053 12.415 22.8232 12.415 22.5424V15.9047H13.4938C13.4291 16.2336 13.3957 16.5746 13.3957 16.9259C13.3957 19.7464 15.5896 22.0318 18.2993 22.0318C21.009 22.0318 23.2028 19.7464 23.2028 16.9259C23.2028 16.5746 23.1695 16.2336 23.1047 15.9047H24.1835V22.5424Z" fill="#EDEDED"/>
<circle cx="17.75" cy="17" r="16.5" stroke="#EDEDED"/>
</svg>
