<svg width="11" height="15" viewBox="0 0 11 15" fill="none" xmlns="http://www.w3.org/2000/svg">
<path d="M5.50108 15L5.21548 14.6661C5.02181 14.4373 0.459961 9.04208 0.459961 5.04092C0.459961 3.2399 1.42046 1.57577 2.98028 0.675349C4.5401 -0.225075 6.46228 -0.225158 8.02208 0.675349C9.58188 1.57586 10.5424 3.2399 10.5424 5.04092C10.5424 9.04725 5.98052 14.4373 5.78688 14.6641L5.50108 15ZM5.50108 0.727432C4.36061 0.731996 3.26839 1.18844 2.46445 1.99702C1.65979 2.8056 1.20921 3.90037 1.21117 5.04083C1.21117 8.21452 4.49953 12.5729 5.50112 13.8314C6.5027 12.5762 9.79107 8.21769 9.79107 5.04401C9.79367 3.90289 9.34374 2.80747 8.53909 1.99819C7.73508 1.18896 6.64225 0.731872 5.50112 0.727298L5.50108 0.727432Z" fill="#383944"/>
<path d="M5.50201 7.88068C4.7143 7.88394 3.9579 7.57421 3.39902 7.01928C2.83953 6.46437 2.52459 5.70991 2.52198 4.9223C2.52003 4.13525 2.83107 3.37884 3.38663 2.82064C3.94285 2.26246 4.69796 1.94881 5.48495 1.94751C6.27266 1.94686 7.02841 2.2592 7.58527 2.81607C8.14279 3.37293 8.45513 4.12804 8.45513 4.91572C8.45513 5.70016 8.14474 6.45265 7.59113 7.0082C7.03752 7.56441 6.28633 7.87806 5.50183 7.88068H5.50201ZM5.50201 2.70583C4.60411 2.69996 3.79231 3.23727 3.44543 4.06474C3.09853 4.89287 3.28567 5.84823 3.91947 6.4839C4.55264 7.11967 5.50727 7.31072 6.33663 6.96708C7.16599 6.62344 7.70598 5.81356 7.70403 4.91567C7.70533 3.69694 6.7207 2.70584 5.50204 2.7005L5.50201 2.70583Z" fill="#383944"/>
</svg>
