<svg width="34" height="34" viewBox="0 0 34 34" fill="none" xmlns="http://www.w3.org/2000/svg">
<g clip-path="url(#clip0)">
<path d="M17.4533 8.34958C12.4245 8.34958 8.34814 12.426 8.34814 17.4548C8.34814 21.3144 10.7496 24.6065 14.1363 25.932C14.0587 25.2134 13.9839 24.1046 14.1691 23.3204C14.3333 22.6097 15.2371 18.796 15.2371 18.796C15.2371 18.796 14.9665 18.2495 14.9665 17.4456C14.9665 16.1805 15.7009 15.2333 16.6126 15.2333C17.3889 15.2333 17.766 15.8166 17.766 16.5142C17.766 17.2945 17.2694 18.4637 17.0106 19.5435C16.7925 20.4513 17.4625 21.1896 18.3571 21.1896C19.9743 21.1896 21.2183 19.4818 21.2183 17.0186C21.2183 14.8392 19.6498 13.3153 17.4165 13.3153C14.8259 13.3153 13.3073 15.257 13.3073 17.2682C13.3073 18.0525 13.6068 18.8893 13.9852 19.3451C14.0587 19.4358 14.0719 19.5133 14.0469 19.6079C13.9773 19.8956 13.8249 20.5156 13.7921 20.6418C13.7513 20.8099 13.6607 20.8428 13.4886 20.7652C12.351 20.2358 11.6416 18.5727 11.6416 17.2393C11.6416 14.365 13.7264 11.7297 17.6556 11.7297C20.8124 11.7297 23.2677 13.9787 23.2677 16.9884C23.2677 20.1255 21.2893 22.6543 18.5424 22.6543C17.6188 22.6543 16.7531 22.1735 16.4562 21.6073C16.4562 21.6073 16.0004 23.344 15.89 23.771C15.6851 24.5631 15.1307 25.5523 14.7576 26.1566C15.6115 26.4194 16.514 26.5626 17.4546 26.5626C22.4834 26.5626 26.5598 22.4862 26.5598 17.4574C26.5598 12.4246 22.4834 8.34827 17.4546 8.34827L17.4533 8.34958Z" fill="#EDEDED"/>
</g>
<circle cx="17" cy="17" r="16.5" stroke="#EDEDED"/>
<defs>
<clipPath id="clip0">
<rect width="19.125" height="19.125" fill="white" transform="translate(7.4375 7.4375)"/>
</clipPath>
</defs>
</svg>
