<svg width="15" height="15" viewBox="0 0 15 15" fill="none" xmlns="http://www.w3.org/2000/svg">
<path d="M14.9518 14.2405L11.6866 10.9715C12.6701 9.80938 13.2657 8.30901 13.2657 6.67199C13.2657 2.99253 10.2732 0 6.59279 0C2.91148 0 -0.0810547 2.99253 -0.0810547 6.67199C-0.0810547 10.3515 2.91148 13.344 6.59279 13.344C8.31519 13.344 9.88168 12.6822 11.0664 11.6071L14.3216 14.867C14.4948 15.0437 14.7767 15.0437 14.9507 14.8706C15.0369 14.7845 15.0813 14.6675 15.0813 14.5542C15.0822 14.44 15.0387 14.3267 14.9517 14.2405L14.9518 14.2405ZM6.59194 12.4537C3.40284 12.4537 0.807376 9.86011 0.807376 6.67102C0.807376 3.48192 3.40284 0.888315 6.59194 0.888315C9.78103 0.888315 12.3746 3.48192 12.3746 6.67102C12.3755 9.86011 9.78196 12.4537 6.59194 12.4537Z" fill="#EC008C"/>
<path d="M5.97831 2.46729C5.73174 2.46729 5.5332 2.66763 5.5332 2.91239C5.5332 3.15716 5.73173 3.3575 5.97831 3.3575C8.14217 3.3575 9.9026 5.11796 9.9026 7.28179C9.9026 7.52655 10.1002 7.7269 10.3477 7.7269C10.5952 7.7269 10.7928 7.52746 10.7928 7.28179C10.7919 4.62738 8.63258 2.46729 5.97831 2.46729Z" fill="#EC008C"/>
</svg>
