<svg width="35" height="34" viewBox="0 0 35 34" fill="none" xmlns="http://www.w3.org/2000/svg">
<path d="M11.2272 11.3612C13.0984 13.5922 15.3943 14.7975 18.195 15.0106C18.195 14.8527 18.2039 14.7294 18.195 14.6078C18.108 13.5411 18.3847 12.6047 19.0877 11.8215C20.3329 10.4205 22.4046 10.2967 23.7926 11.5403C24.0197 11.7434 24.2105 11.8062 24.4833 11.6982C25.0256 11.4839 25.574 11.2872 26.1493 11.0735C26.0624 11.4224 25.8977 11.7444 25.6689 12.0129C25.4457 12.29 25.1801 12.5342 24.8783 12.8507C25.506 12.806 26.0181 12.6047 26.6229 12.3986C26.2738 12.9689 25.8334 13.4713 25.3213 13.8834C25.0797 14.0789 24.9927 14.2785 24.9932 14.599C24.9932 18.3629 22.8631 22.2442 19.2897 23.8194C16.3589 25.111 13.4488 24.9654 10.6191 23.4084C10.4747 23.3354 10.3438 23.236 10.2324 23.1149C10.5538 23.1149 10.8757 23.1313 11.1954 23.1102C11.5324 23.0907 11.8678 23.0484 12.1996 22.9834C12.5457 22.9143 12.8866 22.8197 13.2201 22.7004C13.5402 22.5837 13.8514 22.4418 14.1512 22.2759C14.4499 22.1045 14.733 21.9046 14.997 21.6788C14.3192 21.5297 13.6776 21.3483 13.1319 20.8998C12.598 20.4606 12.1991 19.9305 11.9703 19.223C12.4278 19.1543 12.8546 19.2964 13.306 19.0939C11.7327 18.5068 10.8472 17.4236 10.7396 15.6376C11.2132 15.8261 11.6389 15.9822 12.121 15.9899C11.3098 15.263 10.8283 14.3748 10.782 13.2552C10.7485 12.5913 10.9035 11.9321 11.2272 11.3612Z" fill="#EDEDED"/>
<circle cx="17.5" cy="17" r="16.5" stroke="#EDEDED"/>
</svg>
