<svg width="15" height="15" viewBox="0 0 15 15" fill="none" xmlns="http://www.w3.org/2000/svg">
<path d="M7.5 0C3.37246 0 0 3.35094 0 7.5C0 11.6275 3.35094 15 7.5 15C11.6275 15 15 11.6491 15 7.5C15 3.37246 11.6275 0 7.5 0ZM7.5 14.2449C5.79165 14.2449 4.23848 13.6018 3.06226 12.5582C5.14764 11.8926 5.85848 11.0718 6.10189 10.5387C6.47892 10.7164 6.92269 10.8048 7.38901 10.8048H7.41155H7.45662H7.47915C7.98967 10.8048 8.4551 10.6938 8.85467 10.4945C9.07656 11.005 9.76477 11.87 11.9385 12.5582C10.7614 13.6243 9.20814 14.2449 7.49983 14.2449H7.5ZM9.1867 9.36341C8.76547 9.85138 8.1882 10.0733 7.4558 10.0958H7.43327H7.41073C6.67833 10.0958 6.10195 9.85138 5.67983 9.36341C4.6146 8.16557 4.85903 5.92416 4.85903 5.90153V5.87899C4.90323 4.74701 5.32535 3.94875 6.10195 3.52655C6.63413 3.23792 7.18884 3.21626 7.36653 3.21626H7.41073H7.43327C7.50001 3.21626 8.14313 3.19373 8.76459 3.52655C9.54119 3.94778 9.94077 4.72438 10.0075 5.87899V5.90153C10.0075 5.90239 10.2511 8.16544 9.18671 9.36341H9.1867ZM12.5366 11.9818C9.74039 11.1827 9.51851 10.1842 9.49698 10.0733C9.58539 10.0065 9.65213 9.91812 9.74141 9.82884C10.9843 8.43077 10.7624 6.0126 10.7399 5.79072C10.6064 3.06129 8.60943 2.39562 7.43423 2.43978C6.25805 2.39558 4.26103 3.06124 4.12856 5.79072C4.10603 6.0126 3.88413 8.4092 5.12705 9.82884C5.238 9.93978 5.34894 10.0507 5.45988 10.1391C5.37147 10.3836 4.88262 11.2486 2.46441 11.9584C1.39917 10.7606 0.756057 9.18483 0.756057 7.47652C0.756057 3.7486 3.77416 0.731606 7.50097 0.731606C11.2289 0.731606 14.2459 3.74971 14.2459 7.47652C14.245 9.23081 13.6019 10.784 12.5367 11.9819L12.5366 11.9818Z" fill="#EC008C"/>
</svg>
